<svg width="768" height="778" viewBox="0 0 768 778" fill="none" xmlns="http://www.w3.org/2000/svg">
<path d="M166.6 712.6C148.867 712.6 130.2 711.2 110.6 708.4C91 705.6 75.1333 701.867 63 697.2C43.4 689.267 33.6 675.967 33.6 657.3C33.6 643.767 37.5667 633.033 45.5 625.1C53.9 616.7 66.9667 612.5 84.7 612.5C96.8333 612.5 111.533 614.133 128.8 617.4C146.067 620.667 161.233 622.3 174.3 622.3C203.233 622.3 224 618.567 236.6 611.1C249.2 603.633 255.5 588.467 255.5 565.6C255.5 552.067 250.6 540.633 240.8 531.3C231.467 521.967 212.567 513.1 184.1 504.7C132.3 489.3 94.7333 470.167 71.4 447.3C48.5333 424.433 37.1 394.8 37.1 358.4C37.1 326.667 44.1 299.833 58.1 277.9C72.5667 255.5 92.4 238.467 117.6 226.8C142.8 215.133 171.5 209.3 203.7 209.3C241.5 209.3 272.767 214.433 297.5 224.7C317.1 232.167 326.9 245.467 326.9 264.6C326.9 278.133 322.7 289.1 314.3 297.5C306.367 305.433 293.533 309.4 275.8 309.4C264.133 309.4 251.533 308.233 238 305.9C224.467 303.1 211.167 301.7 198.1 301.7C178.033 301.7 162.867 305.2 152.6 312.2C142.333 319.2 137.2 330.867 137.2 347.2C137.2 362.133 144.433 375.667 158.9 387.8C173.367 399.933 199.967 411.833 238.7 423.5C283.033 436.567 313.6 454.3 330.4 476.7C347.2 498.633 355.6 526.633 355.6 560.7C355.6 610.167 339.033 647.967 305.9 674.1C273.233 699.767 226.8 712.6 166.6 712.6Z" fill="white"/>
<path d="M403.4 707C394.533 707 387.067 703.5 381 696.5C374.933 689.5 371.9 680.633 371.9 669.9V354.9C371.9 339.5 374 323.4 378.2 306.6C382.867 289.8 391.267 274.167 403.4 259.7C416 244.767 433.733 232.633 456.6 223.3C479.467 213.967 509.333 209.3 546.2 209.3C595.2 209.3 633.233 221.433 660.3 245.7C687.367 269.967 700.9 306.367 700.9 354.9C700.9 374.5 697.167 392.467 689.7 408.8C682.7 425.133 671.967 437.5 657.5 445.9C680.367 456.167 696.7 470.4 706.5 488.6C716.767 506.8 721.9 532 721.9 564.2C721.9 610.867 707.433 646.333 678.5 670.6C650.033 694.867 605.933 707 546.2 707H403.4ZM467.8 433.3C473.867 425.833 483.667 420 497.2 415.8C511.2 411.6 527.533 409.5 546.2 409.5C568.133 409.5 583.067 405.533 591 397.6C599.4 389.2 603.6 374.967 603.6 354.9C603.6 331.567 598.7 315 588.9 305.2C579.567 294.933 565.333 289.8 546.2 289.8C519.133 289.8 500 294.7 488.8 304.5C478.067 314.3 472.7 331.1 472.7 354.9C472.7 369.367 472.467 381.033 472 389.9C472 398.3 471.533 405.767 470.6 412.3C470.133 418.833 469.2 425.833 467.8 433.3ZM472.7 625.8H546.2C574.2 625.8 593.567 620.9 604.3 611.1C615.5 601.3 621.1 585.667 621.1 564.2C621.1 533.867 615.267 512.167 603.6 499.1C592.4 486.033 573.267 479.5 546.2 479.5C527.067 479.5 512.133 482.067 501.4 487.2C490.667 491.867 483.2 500.267 479 512.4C474.8 524.533 472.7 541.8 472.7 564.2V625.8Z" fill="#FFF2F2"/>
</svg>
